<svg xmlns="http://www.w3.org/2000/svg" width="444" height="104" viewBox="0 0 444 104">
  <g id="logo-whale" transform="translate(-459 -778)">
    <g id="グループ_1" data-name="グループ 1" transform="translate(579.732 810)">
      <circle id="楕円形_1" data-name="楕円形 1" cx="1.642" cy="1.642" r="1.642" transform="translate(59.732 15.67)" fill="#253958"/>
      <path id="パス_1" data-name="パス 1" d="M436.895,443.248l-.868-.69c-1.308-3.533-3.1-5.976.231-9.113a9.487,9.487,0,0,0,1.736-.842c1.848-1.28,9.22-2.93,2.208-4.536-5.6-1.281-12.294,2.148-16.574,4.011a114.674,114.674,0,0,0-15.8-7.231c-7.03-2.752-14.137-5.321-21.2-7.993-1.664-.629-8.262-1.579-6.518-2.483,12.2-6.316-2.724-6.684-5.63-6.192A32.6,32.6,0,0,1,355.118,406c-32.724-14.5-79.3-11.348-85.058-12.5-9.858-1.971-14.1-2.015-17.27-.574-8.052,3.658-26.417-1.791-35.48,2.345a23.777,23.777,0,0,0-5.817,3.514c-1.082,1.26-1.3,2.424,1,3.063,5.18,1.439,29.645,4.028,38.279,6.331,7.514,2,9.786,4.318,11.8,6.333s6.043,4.316,9.785,2.589,5.182-2.3,5.182-2.3c-4.894,4.6-8.348,4.316-10.937,3.74s-8.717-6.733-11.225-7.77c-8.348-3.454-34.538-6.621-42.309-8.06-2.335-.432-3.641.042-4.341.9-.28,2.3.491,5.023,2.282,8.486,7.26,14.032,19.093,22.99,34.511,26.74,11.3,2.749,22.985,3.924,34.426,6.155,5.124,1,9.7,2.095,14.758,2.946,2.79,2.862,5.626,5.125,7.826,6.069,5.683,2.434,16.4,7.087,24.256,4.521,5.622-1.839-3.908-6.23-9.134-9.225,3-.079,6.321-.167,6.793-.163,11.231.082,20.416-.76,29.092-1.008,26.5-.76,38.446-.864,53.6-3.871,5.444-1.08,9.24-2.057,12-2.405,2.9,2.953,6.168,8.558,8.933,10.416,3.918,2.633,16.017-1.118,20.2-3.128S441.451,446.88,436.895,443.248ZM270.869,413.339a3.693,3.693,0,1,1,3.694-3.694A3.692,3.692,0,0,1,270.869,413.339Zm38.8,26.7c3.145-.019,6.219-.1,9.18-.254-1.531,1.262-4.28,1.59-8.427,1.867C310.136,441.1,309.89,440.558,309.67,440.039Zm-.68-1.75c-.267-.754-.474-1.4-.65-1.914q3.528-.08,7.047-.336A13.57,13.57,0,0,1,308.989,438.29Zm4.9-6a22.214,22.214,0,0,1-9.7,1.732c-.849-.03-1.7-.072-2.546-.116A21.282,21.282,0,0,1,296.589,432,125.694,125.694,0,0,0,313.887,432.294Zm-29.8-1.839a7.6,7.6,0,0,0,.095.785c.061.307.159.633.248.954-27.34-4.066-50.211-13.881-51.172-23.174C239.9,418.1,261.18,426.682,284.083,430.456Zm1.444,4.682q.4.875.891,1.774c-36.238-4.97-61.637-18.644-61.08-29.566C232.5,420.252,257.19,431.456,285.527,435.137Zm2.11,3.863c.275.44.563.878.859,1.317-52.143-5.227-70.364-22.761-69.856-33.58C229.6,426.828,258.962,436.108,287.637,439Zm-74.477-32.568c2.974,11.906,21.47,31.649,76.778,35.914.337.453.682.9,1.037,1.344C229.409,438.8,214.932,420.506,213.159,406.432ZM312.344,444.7c-.392-.51-.737-1.024-1.058-1.535,4.011.015,8.141-.023,12.463-.155A92.123,92.123,0,0,1,312.344,444.7Z" transform="translate(-208.675 -391.924)" fill="#253958"/>
    </g>
    <circle id="楕円形_9" data-name="楕円形 9" cx="6" cy="6" r="6" transform="translate(525 827)" fill="#cae3fb"/>
    <circle id="楕円形_13" data-name="楕円形 13" cx="3" cy="3" r="3" transform="translate(557 805)" fill="#cae3fb"/>
    <circle id="楕円形_14" data-name="楕円形 14" cx="5" cy="5" r="5" transform="translate(483 791)" fill="#cae3fb"/>
    <circle id="楕円形_18" data-name="楕円形 18" cx="3" cy="3" r="3" transform="translate(459 778)" fill="#cae3fb"/>
    <circle id="楕円形_10" data-name="楕円形 10" cx="4" cy="4" r="4" transform="translate(862 874)" fill="#cae3fb"/>
    <circle id="楕円形_15" data-name="楕円形 15" cx="5" cy="5" r="5" transform="translate(870 848)" fill="#cae3fb"/>
    <circle id="楕円形_16" data-name="楕円形 16" cx="4" cy="4" r="4" transform="translate(862 823)" fill="#cae3fb"/>
    <circle id="楕円形_17" data-name="楕円形 17" cx="4" cy="4" r="4" transform="translate(895 811)" fill="#cae3fb"/>
    <circle id="楕円形_11" data-name="楕円形 11" cx="6.5" cy="6.5" r="6.5" transform="translate(796 810)" fill="#cae3fb"/>
    <circle id="楕円形_12" data-name="楕円形 12" cx="4" cy="4" r="4" transform="translate(825 788)" fill="#cae3fb"/>
  </g>
</svg>
