<svg xmlns="http://www.w3.org/2000/svg" width="237.634" height="24.668" viewBox="0 0 237.634 24.668">
  <path id="logo" d="M8.25-13.29l7.17-9.33h7.26L13.71-11.91,23.52,0H15.9L8.25-9.81V0H2.37V-22.62H8.25Zm26.76-9.33v12.3q0,.99.075,2.025a5.55,5.55,0,0,0,.45,1.875A3.12,3.12,0,0,0,36.72-5.055,4.181,4.181,0,0,0,39-4.53a4.1,4.1,0,0,0,2.265-.525A3.253,3.253,0,0,0,42.45-6.42,5.33,5.33,0,0,0,42.915-8.3q.075-1.035.075-2.025v-12.3h5.85V-9.51q0,5.28-2.415,7.71T39,.63q-5.01,0-7.44-2.43T29.13-9.51V-22.62ZM64.53-4.98h9.48V0H54.66L65.37-17.64H56.46v-4.98H75.18ZM86.88-22.62V0H81V-22.62ZM100.5-12.51h1.11a4.287,4.287,0,0,0,2.67-.72,2.462,2.462,0,0,0,.93-2.07,2.462,2.462,0,0,0-.93-2.07,4.287,4.287,0,0,0-2.67-.72H100.5ZM113.43,0h-7.32L100.5-8.7V0H94.62V-22.62h9.15a8.981,8.981,0,0,1,3.3.555A6.386,6.386,0,0,1,109.4-20.55a6.388,6.388,0,0,1,1.38,2.22,7.737,7.737,0,0,1,.465,2.7,6.636,6.636,0,0,1-1.245,4.185A6.27,6.27,0,0,1,106.32-9.27Zm17.76-8.4-2.64-7.53L125.91-8.4Zm1.56,4.47h-8.4L123,0h-6.27l8.61-22.62h6.42L140.37,0H134.1ZM176.2-21.4v4.043a9.465,9.465,0,0,0-6.123-2.476,7.8,7.8,0,0,0-5.874,2.5,8.445,8.445,0,0,0-2.4,6.094,8.242,8.242,0,0,0,2.4,6.006A7.934,7.934,0,0,0,170.1-2.783a7.225,7.225,0,0,0,3.062-.586,8.829,8.829,0,0,0,1.458-.791,17.227,17.227,0,0,0,1.589-1.2v4.116A12.328,12.328,0,0,1,170.051.41a11.351,11.351,0,0,1-8.276-3.384,11.219,11.219,0,0,1-3.413-8.232,11.614,11.614,0,0,1,2.856-7.705,11.373,11.373,0,0,1,9.1-4.146A11.547,11.547,0,0,1,176.2-21.4ZM197.339-5.493h-9.683L185.136,0H181.46l11.191-24.038L203.447,0h-3.735ZM195.947-8.7l-3.354-7.69L189.077-8.7Zm24.621-10.708h-7.881v5.435h7.6v3.208h-7.6V0h-3.413V-22.617h11.294Zm19.436,0h-9.067v5.435h8.8v3.208h-8.8v7.559H240V0h-12.48V-22.617H240Z" transform="translate(-2.37 24.038)" fill="#253958"/>
</svg>
